<?xml version="1.0" standalone="no"?><!DOCTYPE svg PUBLIC "-//W3C//DTD SVG 1.1//EN" "http://www.w3.org/Graphics/SVG/1.1/DTD/svg11.dtd"><svg class="icon" width="512px" height="512.00px" viewBox="0 0 1024 1024" version="1.1" xmlns="http://www.w3.org/2000/svg"><path d="M511.957333 0c282.752 0 512 229.248 512 512s-229.248 512-512 512-512-229.248-512-512 229.248-512 512-512z m0 256a42.666667 42.666667 0 0 0-42.666666 42.666667v337.92l-144-115.2-4.394667-3.114667a42.666667 42.666667 0 0 0-48.938667 69.717333l213.333334 170.666667a42.666667 42.666667 0 0 0 53.333333 0l213.333333-170.666667 3.968-3.626666a42.666667 42.666667 0 0 0-57.301333-63.018667L554.666667 636.501333V298.666667a42.666667 42.666667 0 0 0-37.674667-42.368z" fill="#008df0" /></svg>