<?xml version="1.0" standalone="no"?><!DOCTYPE svg PUBLIC "-//W3C//DTD SVG 1.1//EN" "http://www.w3.org/Graphics/SVG/1.1/DTD/svg11.dtd"><svg class="icon" width="200px" height="125.03px" viewBox="0 0 1638 1024" version="1.1" xmlns="http://www.w3.org/2000/svg"><path d="M756.338268 938.403071c417.711444 0 756.338268-73.506625 756.338269-164.219947 0-90.689685-338.626824-164.219947-756.338269-164.219946-417.711444 0-756.338268 73.506625-756.338268 164.219946 0 90.689685 338.626824 164.219947 756.338268 164.219947z" fill="#F5F5F5" /><path d="M1299.956399 322.980076h11.817785v-4.490758l-2.978082-3.356251-8.839703 7.847009zM1060.149897 53.180034l-10.021482 6.263427 0.519982 0.827245 0.661796 0.756338 8.839704-7.84701z m-607.623257-0.023635l8.839704 7.847009 0.63816-0.732702 0.543618-0.850881-10.021482-6.263426zM212.720138 323.003712l-8.839704-7.84701-2.978081 3.356251v4.490759H212.720138z m0 216.738185h-11.817785v11.817785H212.720138v-11.817785z m1087.236261 0v11.817785h11.817785v-11.817785H1299.956399z m8.839703-224.60883L1068.9896 45.309389l-17.679407 15.694019 239.806502 269.823678 17.679407-15.694019zM1070.171379 46.869337C1057.171815 26.140941 1037.081579 11.817785 1014.13144 11.817785v23.635571c12.479581 0 25.951857 7.917916 35.996975 23.966469l20.042964-12.526852zM1014.13144 11.817785H498.545097v23.635571h515.586343v-23.635571zM498.545097 11.817785c-22.926504 0-43.06401 14.323156-56.016303 35.027916l20.019328 12.550489c10.045118-16.024917 23.517393-23.942833 35.996975-23.942834v-23.635571z m-54.834525 33.467969L203.856799 315.156702l17.679407 15.694019L461.366344 60.979773l-17.679407-15.694019zM200.902353 323.003712v216.738185h23.63557v-216.738185h-23.63557z m11.817785 228.55597h1087.236261v-23.635571H212.720138v23.635571z m1099.054046-11.817785v-216.738185h-23.635571v216.738185h23.635571z" fill="#D9D9D9" /><path d="M983.547011 397.384853c0-37.651464 23.493757-68.73224 52.636417-68.779511H1299.956399v425.511183c0 49.800148-31.198954 90.618779-69.724934 90.618779h-947.786393c-38.525981 0-69.724934-40.842266-69.724934-90.618779V328.628978h263.772971c29.142659 0 52.636416 31.033505 52.636416 68.684969v0.519982c0 37.651464 23.753749 68.070444 52.872773 68.070444h348.671941c29.119023 0 52.872772-30.726242 52.872772-68.354071v-0.165449z" fill="#FAFAFA" /><path d="M971.729226 397.550302v-0.165449q0-32.309825 17.82122-55.661769 18.979363-24.888256 46.632982-24.911892H1311.774184v437.305333q0 41.40952-22.855597 71.190339-24.01374 31.246225-58.687122 31.246225h-947.786393q-34.673382 0-58.687122-31.26986-22.855597-29.780819-22.855597-71.166704V316.811192h275.590756q27.653618 0 46.632981 24.864621 17.82122 23.328308 17.821221 55.638134v0.519982q0 24.155553 13.023199 40.889538 11.959599 15.363121 28.031788 15.363121h348.671941q16.048553 0 28.008152-15.481299 13.046835-16.852162 13.046835-41.054987z m23.635571 0q0 32.262554-17.98667 55.519956-19.073906 24.628265-46.703888 24.628265H582.002298q-27.653618 0-46.680253-24.462816-18.010305-23.162859-18.010305-55.401778v-0.519982q0-24.321002-12.975928-41.291343-11.888692-15.599477-27.842703-15.599477H224.537923v413.693398q0 33.373426 17.963034 56.772641 16.923069 22.028352 39.944115 22.028352h947.786393q23.044682 0 39.944115-22.004716 17.963034-23.399215 17.963033-56.796277V340.446763H1036.183428q-15.95401 0-27.842703 15.599477-12.975928 17.017611-12.975928 41.338613v0.165449z" fill="#D9D9D9" /></svg>