<?xml version="1.0" standalone="no"?><!DOCTYPE svg PUBLIC "-//W3C//DTD SVG 1.1//EN" "http://www.w3.org/Graphics/SVG/1.1/DTD/svg11.dtd"><svg class="icon" width="512px" height="512.00px" viewBox="0 0 1024 1024" version="1.1" xmlns="http://www.w3.org/2000/svg"><path d="M254.987215 68.686009A500.856487 500.856487 0 0 1 512.00736 0.015039c92.862607 0 178.557322 22.911656 257.020145 68.67097a509.688355 509.688355 0 0 1 186.301205 186.301206A500.856487 500.856487 0 0 1 1023.99968 512.00736c0 92.862607-22.911656 178.557322-68.67097 257.020144a509.688355 509.688355 0 0 1-186.301205 186.301206A500.856487 500.856487 0 0 1 512.00736 1023.99968a500.856487 500.856487 0 0 1-257.020145-68.67097 509.688355 509.688355 0 0 1-186.301206-186.301206A500.856487 500.856487 0 0 1 0.015039 512.00736c0-92.862607 22.911656-178.557322 68.67097-257.020145a509.688355 509.688355 0 0 1 186.301206-186.301206z m468.344975 270.71594c-7.551887-2.303965-17.087744 0.383994-28.67157 7.935881a37.759434 37.759434 0 0 0-6.335905 6.335905c-3.32795 3.839942-6.335905 5.887912-8.959866 6.335905 0.831988 0 1.919971-1.087984 2.943956-3.327951 1.151983-2.239966 2.239966-4.67193 3.391949-7.359889a20.479693 20.479693 0 0 1 2.303966-4.67193 48.255276 48.255276 0 0 1 14.719779-9.98385c6.143908-2.68796 17.727734-5.31192 34.559482-7.99988 15.167772-3.519947 26.495603-1.087984 34.047489 7.359889-0.895987-0.895987 1.279981-3.839942 6.335905-8.703869a45.823313 45.823313 0 0 1 9.663855-7.99988 35.967461 35.967461 0 0 1 9.98385-3.007955c5.375919-1.087984 8.703869-2.751959 10.04785-4.991925l1.27998-14.65578c-5.31192 0.447993-9.215862-1.087984-11.647825-4.67193a28.159578 28.159578 0 0 1-4.351935-13.951791c0 0.831988-1.279981 2.623961-3.96794 5.31192 0-3.135953-1.023985-4.927926-3.007955-5.31192a15.99976 15.99976 0 0 0-7.679885 0.63999c-3.071954 0.895987-5.119923 1.087984-6.01591 0.639991a26.175607 26.175607 0 0 1-9.98385-4.991925 21.951671 21.951671 0 0 1-5.31192-11.007835 189.565157 189.565157 0 0 0-2.68796-9.98385 19.903701 19.903701 0 0 0-6.335905-7.35989 23.679645 23.679645 0 0 1-6.335905-6.6559 72.318915 72.318915 0 0 1-1.663975-3.647945 81.470778 81.470778 0 0 0-1.98397-4.351935 14.079789 14.079789 0 0 0-2.68796-3.647945 5.119923 5.119923 0 0 0-3.647945-1.663976c-1.279981 0-2.879957 1.087984-4.67193 3.327951-1.791973 2.239966-3.455948 4.479933-4.991925 6.6559-1.535977 2.239966-2.559962 3.32795-3.007955 3.32795a5.439918 5.439918 0 0 0-3.96794-0.959986 21.247681 21.247681 0 0 0-3.007955 0.639991 11.263831 11.263831 0 0 0-3.007955 1.98397 18.623721 18.623721 0 0 1-8.959866 4.351935 43.519347 43.519347 0 0 0-5.759913 1.27998c6.719899-2.175967 6.463903-4.607931-0.639991-7.29589a21.055684 21.055684 0 0 0-10.62384-1.919971c3.96794-1.855972 5.631916-4.479933 4.991925-8.063879a15.99976 15.99976 0 0 0-5.695915-9.34386h3.32795c-0.447993-1.791973-2.303965-3.647945-5.631915-5.631916a81.726774 81.726774 0 0 0-11.647826-5.695914 57.407139 57.407139 0 0 1-8.703869-3.967941c-3.519947-2.239966-11.135833-4.351935-22.65566-6.399904-11.519827-1.919971-18.879717-2.047969-22.01567-0.319995-2.239966 2.68796-3.199952 5.055924-3.007955 7.039894 0.255996 1.98397 1.151983 5.119923 2.68796 9.34386 1.535977 4.223937 2.303965 7.039894 2.303965 8.319875 0.447993 2.68796-0.767988 5.567916-3.647945 8.639871-2.879957 3.135953-4.351935 5.759914-4.351935 7.99988 0 3.135953 3.135953 6.591901 9.34386 10.367844 6.207907 3.775943 8.447873 8.511872 6.6559 14.335785-1.279981 3.519947-4.863927 7.039894-10.62384 10.623841a44.67133 44.67133 0 0 0-10.68784 7.99988 13.951791 13.951791 0 0 0-1.023985 12.351815c1.599976 4.67193 3.903941 8.319875 7.039895 11.007835 0.895987 0.895987 1.215982 1.791973 0.959985 2.687959-0.191997 0.895987-0.959986 1.919971-2.303965 3.007955a29.823553 29.823553 0 0 1-7.99988 4.991925l-1.98397 1.279981c-4.927926 2.239966-9.471858 0.895987-13.695795-3.96794a43.071354 43.071354 0 0 1-8.959866-17.279741c-3.135953-11.135833-6.719899-17.855732-10.687839-20.0317-10.239846-3.583946-16.63975-3.32795-19.32771 0.639991-2.239966-5.759914-11.32783-11.519827-27.32759-17.279741a78.526822 78.526822 0 0 0-38.655421-2.68796c2.623961-0.447993 2.623961-3.839942 0-10.047849-3.135953-6.6559-7.35989-9.34386-12.67181-7.99988a33.471498 33.471498 0 0 0 2.623961-11.647825c0.447993-5.119923 0.63999-8.127878 0.63999-8.959866 1.407979-5.759914 4.03194-10.879837 8.06388-15.35977a127.806083 127.806083 0 0 0 11.007834-14.719779c1.535977-2.623961 1.663975-3.96794 0.319996-3.96794 15.551767 1.791973 26.6876-0.63999 33.2795-7.295891a51.263231 51.263231 0 0 0 7.679885-11.391829c2.943956-5.31192 5.247921-9.087864 7.039895-11.32783 3.96794-2.623961 7.039894-3.839942 9.343859-3.647945a29.823553 29.823553 0 0 1 9.599856 3.647945 23.487648 23.487648 0 0 0 9.727855 3.391949c6.207907 0.383994 9.599856-2.047969 10.303845-7.35989a14.463783 14.463783 0 0 0-4.991925-13.3118c5.31192 0.447993 6.01591-3.391949 1.98397-11.391829a14.463783 14.463783 0 0 0-5.31192-5.951911c-5.31192-1.791973-11.32783-0.63999-17.98373 3.32795-3.583946 1.791973-3.135953 3.519947 1.27998 5.311921-0.383994-0.447993-2.559962 1.919971-6.271906 7.039894a56.383154 56.383154 0 0 1-11.007834 11.647825c-3.583946 2.68796-7.103893 1.535977-10.68784-3.32795a53.759194 53.759194 0 0 1-3.647945-8.959865c-1.98397-5.631916-4.095939-8.63987-6.399904-9.087864-3.519947 0-7.039894 3.391949-10.623841 10.047849 1.34398-3.583946-1.087984-6.911896-7.295891-9.98385a47.99928 47.99928 0 0 0-15.99976-5.375919c8.447873-5.31192 6.6559-11.32783-5.375919-17.983731a33.087504 33.087504 0 0 0-13.631796-3.32795c-6.01591-0.447993-10.367844 0.447993-12.991805 2.68796a17.919731 17.919731 0 0 0-3.711944 7.679885c-0.191997 1.919971 0.895987 3.711944 3.32795 5.31192a42.68736 42.68736 0 0 0 7.039895 3.647945c2.175967 0.895987 4.735929 1.791973 7.679884 2.68796a45.759314 45.759314 0 0 1 5.631916 1.919971c6.207907 4.479933 7.99988 7.615886 5.31192 9.407859a80.63879 80.63879 0 0 1-5.631915 2.303966 625.206622 625.206622 0 0 0-7.679885 3.007954c-2.239966 0.895987-3.519947 1.791973-3.967941 2.68796-1.34398 1.727974-1.34398 4.863927 0 9.34386 1.279981 4.415934 0.831988 7.551887-1.343979 9.279861A29.503557 29.503557 0 0 1 448.00832 145.676854a42.495363 42.495363 0 0 0-4.67193-11.007834c3.135953 4.03194-2.431964 5.31192-16.639751 4.031939l-6.6559-0.63999c-1.791973 0-5.375919 0.383994-10.687839 1.279981a49.535257 49.535257 0 0 1-13.695795 0.63999 12.415814 12.415814 0 0 1-8.959866-5.31192c-1.791973-3.519947-1.791973-7.99988 0-13.311801 0.447993-1.791973 1.279981-2.239966 2.623961-1.34398a99.838502 99.838502 0 0 1-7.295891-6.335905 65.023025 65.023025 0 0 0-6.6559-5.695914c-20.479693 6.719899-41.34338 15.807763-62.719059 27.391589a16.383754 16.383754 0 0 0 7.99988-0.63999 77.438838 77.438838 0 0 0 8.70387-4.415934l6.6559-3.647945c15.103773-6.207907 24.447633-7.743884 28.031579-4.67193l3.32795-3.32795c6.207907 7.103893 10.623841 12.67181 13.311801 16.63975-3.135953-1.727974-9.791853-1.919971-20.0317-0.63999-8.831868 2.68796-13.759794 5.31192-14.65578 7.99988 3.135953 5.31192 4.223937 9.34386 3.32795 12.031819a104.126438 104.126438 0 0 1-7.679885-6.6559 52.863207 52.863207 0 0 0-9.599856-7.35989 26.623601 26.623601 0 0 0-10.047849-3.32795c-7.039894 0-11.96782 0.191997-14.65578 0.639991A420.66569 420.66569 0 0 0 150.66878 286.090748c3.135953 3.071954 5.759914 4.863927 7.99988 5.311921 1.791973 0.447993 2.879957 2.431964 3.32795 6.015909a25.599616 25.599616 0 0 0 1.663975 7.295891c0.63999 1.34398 3.199952 0.63999 7.679885-1.919971 4.03194 3.519947 4.67193 7.679885 1.98397 12.607811 0.447993-0.447993 10.239846 5.567916 29.375559 17.98373 8.447873 7.551887 13.119803 12.223817 13.951791 14.079789 1.34398 4.799928-0.831988 8.831868-6.6559 11.96782a34.111488 34.111488 0 0 0-6.01591-6.01591c-3.519947-3.135953-5.503917-4.03194-5.951911-2.687959-1.34398 2.239966-1.279981 6.399904 0.319996 12.351815 1.535977 6.01591 3.839942 8.767868 7.039894 8.319875-3.199952 0-5.247921 3.583946-6.399904 10.687839a153.98169 153.98169 0 0 0-1.663975 23.679645c0 8.63987-0.191997 13.887792-0.639991 15.615766l1.279981 0.63999c-1.279981 5.375919-0.063999 13.055804 3.711945 23.039655 3.839942 9.98385 8.575871 14.335785 14.335785 12.991805-5.759914 1.34398-1.279981 10.879837 13.3118 28.67157 2.68796 3.583946 4.479933 5.567916 5.375919 6.01591 1.279981 0.895987 3.96794 2.559962 7.99988 4.991925 3.96794 2.431964 7.295891 4.67193 9.983851 6.6559a28.415574 28.415574 0 0 1 6.6559 7.039894 58.68712 58.68712 0 0 1 6.6559 14.975776c2.68796 7.743884 5.759914 12.991805 9.34386 15.679764-0.895987 2.623961 1.279981 7.039894 6.335905 13.311801 5.119923 6.207907 7.423889 11.32783 7.039894 15.359769a3.199952 3.199952 0 0 0-1.727974 0.639991 3.199952 3.199952 0 0 1-1.663975 0.63999c1.34398 3.199952 4.799928 6.271906 10.367844 9.34386 5.567916 3.135953 8.959866 6.01591 10.303846 8.70387 0.447993 1.279981 0.895987 3.519947 1.34398 6.6559a24.511632 24.511632 0 0 0 1.98397 7.29589c0.895987 1.791973 2.68796 2.239966 5.375919 1.34398 0.895987-8.895867-4.479933-22.65566-15.99976-41.34338a547.767784 547.767784 0 0 1-11.32783-19.32771 38.335425 38.335425 0 0 1-3.711944-10.303845 50.815238 50.815238 0 0 0-3.007955-9.663855 12.799808 12.799808 0 0 1 4.03194 1.023984c1.791973 0.63999 3.647945 1.407979 5.631915 2.303966a33.919491 33.919491 0 0 1 5.055924 2.687959c1.279981 0.895987 1.727974 1.535977 1.279981 1.919972-1.279981 3.199952-0.831988 7.039894 1.34398 11.711824a53.567197 53.567197 0 0 0 7.99988 12.351815 914.290286 914.290286 0 0 0 19.32771 21.31168c2.68796 2.68796 5.759914 7.039894 9.34386 12.991805 3.583946 6.01591 3.583946 9.023865 0 9.023865 4.03194 0 8.447873 2.303965 13.3118 7.039894 4.927926 4.607931 8.703869 8.959866 11.391829 12.991805a49.919251 49.919251 0 0 1 5.311921 17.279741c1.279981 7.99988 2.431964 13.375799 3.32795 15.99976a21.119683 21.119683 0 0 0 5.695914 9.023865 33.087504 33.087504 0 0 0 8.319875 6.335905l10.623841 5.31192 8.70387 4.67193c2.239966 0.895987 6.335905 3.199952 12.351814 7.039894 5.951911 3.775943 10.751839 6.271906 14.271786 7.679885a30.719539 30.719539 0 0 0 10.68784 2.623961 35.199472 35.199472 0 0 0 9.663855-1.663975c3.839942-1.087984 6.783898-1.919971 8.959866-2.367965 6.719899-0.831988 13.183802 2.495963 19.391709 10.04785s10.879837 12.159818 14.015789 14.015789c15.99976 8.383874 28.159578 10.879837 36.67145 7.295891-0.895987 0.447993-0.831988 2.111968 0.319996 4.991925 1.087984 2.879957 2.879957 6.399904 5.31192 10.367845a653.494198 653.494198 0 0 0 9.663855 15.359769 63.295051 63.295051 0 0 0 12.031819 9.919851c5.759914 4.03194 9.727854 7.35989 11.967821 10.04785 2.68796-1.791973 4.223937-3.839942 4.67193-6.01591-1.279981 3.583946 0.255996 7.99988 4.67193 13.3118 4.479933 5.375919 8.447873 7.551887 12.031819 6.6559 6.207907-1.279981 9.279861-8.383874 9.279861-21.31168-13.759794 6.6559-24.63963 2.68796-32.63951-11.96782a12.991805 12.991805 0 0 0-1.663975-3.711945 42.495363 42.495363 0 0 1-4.351935-11.32783 9.471858 9.471858 0 0 1 0-4.991925c0.447993-1.279981 1.535977-1.98397 3.32795-1.98397 4.03194 0 6.207907-0.767988 6.6559-2.367965 0.447993-1.535977 0-4.287936-1.279981-8.319875a134.397984 134.397984 0 0 1-2.687959-8.63987 28.799568 28.799568 0 0 0-7.35989-13.3758 177.661335 177.661335 0 0 1-7.99988-9.98385c-2.175967 4.03194-5.759914 5.759914-10.623841 5.375919-4.927926-0.447993-8.447873-2.495963-10.687839-6.015909a18.367724 18.367724 0 0 1-1.023985 3.647945 15.871762 15.871762 0 0 0-0.959985 4.351935 38.01543 38.01543 0 0 1-9.983851-0.639991 82.558762 82.558762 0 0 0 1.663975-11.711824c0.63999-6.399904 1.407979-11.455828 2.303966-14.975775a37.055444 37.055444 0 0 1 3.647945-7.99988 137.597936 137.597936 0 0 0 4.991925-9.663855 32.831508 32.831508 0 0 0 2.68796-8.319876c0.447993-2.68796-0.575991-4.799928-3.007955-6.399904-2.431964-1.535977-6.335905-2.047969-11.647825-1.599976-8.447873 0.383994-14.207787 4.863927-17.279741 13.311801a138.237926 138.237926 0 0 0-2.047969 7.039894 22.591661 22.591661 0 0 1-3.32795 7.615886 16.63975 16.63975 0 0 1-6.01591 4.67193 38.975415 38.975415 0 0 1-15.99976 1.279981 39.295411 39.295411 0 0 1-15.99976-3.263952 42.239366 42.239366 0 0 1-14.975776-19.32771 61.247081 61.247081 0 0 1-6.399904-24.703629c0-4.479933 0.63999-10.303845 1.727974-17.663735 1.087984-7.295891 1.727974-12.863807 1.983971-16.639751a43.775343 43.775343 0 0 0-3.647946-16.319755 33.791493 33.791493 0 0 0 5.951911-6.399904 41.407379 41.407379 0 0 1 6.719899-6.975895 11.903821 11.903821 0 0 1 2.943956-0.959986 6.783898 6.783898 0 0 1 3.007955 0c0.895987 0.191997 1.791973-0.127998 2.68796-1.023984a8.447873 8.447873 0 0 0 1.98397-4.03194 19.839702 19.839702 0 0 0-2.623961-1.919971c-1.34398-1.407979-2.239966-2.047969-2.687959-2.047969 3.135953 1.279981 9.407859 1.023985 19.007715-1.023985 9.599856-1.98397 15.679765-1.663975 18.303725 1.023985 6.6559 4.863927 11.519827 4.479933 14.719779-1.279981a53.119203 53.119203 0 0 0-1.727974-6.399904c-1.087984-3.775943-1.215982-6.783898-0.319995-8.959866 2.239966 11.96782 8.703869 13.951791 19.32771 5.951911 1.34398 1.34398 4.799928 2.431964 10.367845 3.32795a35.455468 35.455468 0 0 1 11.647825 3.32795c1.279981 0.895987 2.879957 2.111968 4.67193 3.711944l3.647945 3.007955c0.63999 0.447993 1.791973 0.319995 3.32795-0.383994a20.095699 20.095699 0 0 0 5.695915-4.287936c4.479933 6.207907 7.039894 11.519827 7.99988 15.99976 4.863927 17.727734 9.087864 27.519587 12.67181 29.311561 3.071954 1.279981 5.567916 1.791973 7.29589 1.279981 1.791973-0.383994 2.815958-2.559962 3.007955-6.271906a64.63903 64.63903 0 0 0-0.959986-17.663735l-0.63999-5.37592v-11.96782l-0.703989-5.311921c-6.6559-1.34398-10.815838-4.03194-12.351815-7.99988a14.335785 14.335785 0 0 1 1.023985-12.351814 45.247321 45.247321 0 0 1 9.98385-12.351815 21.759674 21.759674 0 0 1 5.31192-2.303965c3.135953-1.151983 6.591901-2.559962 10.367845-4.351935a29.951551 29.951551 0 0 0 8.319875-5.311921c9.34386-8.447873 12.67181-16.255756 9.98385-23.359649 3.135953 0 5.567916-1.98397 7.35989-6.01591-0.447993 0-1.599976-0.63999-3.32795-1.919971a48.703269 48.703269 0 0 0-4.991926-3.391949 9.023865 9.023865 0 0 0-3.007954-1.279981c3.96794-2.239966 4.479933-5.823913 1.27998-10.68784 2.239966-1.34398 3.903941-3.839942 5.055924-7.359889 1.087984-3.583946 2.751959-5.759914 4.991926-6.6559 3.96794 5.31192 8.63987 5.759914 14.015789 1.27998 3.519947-3.519947 3.775943-7.039894 0.639991-10.62384 2.239966-3.135953 6.783898-5.439918 13.631795-7.039895 6.911896-1.535977 11.007835-3.647945 12.351815-6.271906 3.135953 0.895987 4.927926 0.447993 5.375919-1.34398a35.519467 35.519467 0 0 0 0.639991-7.99988c0-3.583946 0.63999-6.207907 1.98397-7.99988a22.719659 22.719659 0 0 1 9.98385-6.015909c4.927926-1.791973 7.807883-2.879957 8.70387-3.32795l11.32783-7.35989c1.279981-1.727974 1.279981-2.623961 0-2.623961a24.127638 24.127638 0 0 0 20.67169-7.359889c4.479933-4.863927 3.071954-9.34386-4.03194-13.311801 1.34398-2.68796 0.63999-4.799928-1.919971-6.399904a34.879477 34.879477 0 0 0-10.047849-3.583946 24.191637 24.191637 0 0 1 7.679885-0.383994c3.775943 0.255996 6.079909-0.063999 6.975895-0.959986 6.6559-4.479933 5.119923-7.99988-4.67193-10.687839z m-138.68592 581.943271c0 2.623961 0.447993 6.207907 1.34398 10.62384a412.473813 412.473813 0 0 0 233.98049-125.95011c-1.279981-1.34398-4.095939-2.367964-8.319875-3.007955a23.935641 23.935641 0 0 1-8.319875-2.367965 104.894427 104.894427 0 0 0-15.99976-5.31192 13.055804 13.055804 0 0 0-1.663975-8.63987 17.791733 17.791733 0 0 0-5.31192-6.01591 356.474653 356.474653 0 0 0-8.319876-5.311921 350.970736 350.970736 0 0 1-7.359889-4.671929 223.868642 223.868642 0 0 0-9.34386-7.679885 47.35929 47.35929 0 0 0-4.991925-3.007955c-2.431964-1.279981-4.351935-1.791973-5.695915-1.279981a23.35965 23.35965 0 0 1-6.6559 0.63999l-1.98397 0.639991a18.431724 18.431724 0 0 0-3.647945 1.663975 54.591181 54.591181 0 0 1-3.711945 1.98397 6.847897 6.847897 0 0 0-2.62396 2.047969c-0.447993 0.63999-0.447993 1.215982 0 1.663975a82.558762 82.558762 0 0 0-23.99964-14.719779 18.815718 18.815718 0 0 1-7.35989-3.647945 63.35905 63.35905 0 0 0-7.039894-4.67193 9.727854 9.727854 0 0 0-6.591901-0.959986 15.231772 15.231772 0 0 0-7.679885 4.607931 15.99976 15.99976 0 0 0-4.03194 10.04785 50.559242 50.559242 0 0 1-1.279981 8.63987c-3.199952-2.239966-3.199952-6.079909 0-11.647825 3.071954-5.567916 3.519947-9.663855 1.279981-12.351815-1.279981-2.623961-3.647945-3.647945-6.975895-3.007955a22.335665 22.335665 0 0 0-7.99988 3.007955c-1.98397 1.34398-4.543932 3.199952-7.679885 5.695915a51.903221 51.903221 0 0 1-6.01591 4.287935 63.807043 63.807043 0 0 0-5.631915 3.711945 22.399664 22.399664 0 0 0-5.695915 4.991925 33.087504 33.087504 0 0 0-3.96794 7.99988 40.319395 40.319395 0 0 1-3.32795 7.29589c-0.895987-1.727974-3.455948-3.199952-7.679885-4.287935-4.223937-1.151983-6.335905-2.367964-6.335905-3.711945 0.895987 4.479933 1.791973 12.223817 2.68796 23.35965 0.895987 11.135833 1.919971 19.583706 3.32795 25.34362 3.071954 13.759794 0.447993 24.447633-7.99988 31.99952-12.03182 11.071834-18.431724 19.9677-19.32771 26.6236-1.791973 9.791853 0.895987 15.615766 7.99988 17.34374 0 3.135953-1.791973 7.679885-5.37592 13.695795-3.519947 6.01591-5.119923 10.751839-4.67193 14.335785z" fill="#20A0FF" /></svg>