<?xml version="1.0" standalone="no"?><!DOCTYPE svg PUBLIC "-//W3C//DTD SVG 1.1//EN" "http://www.w3.org/Graphics/SVG/1.1/DTD/svg11.dtd"><svg class="icon" width="512px" height="512.00px" viewBox="0 0 1024 1024" version="1.1" xmlns="http://www.w3.org/2000/svg"><path d="M531.113414 752.928002c144.84977 0 262.272097 19.790747 262.272097 44.205415 0 24.40925-117.422327 44.205415-262.272097 44.205415-144.84977 0-262.273903-19.796165-262.273903-44.205415 0-24.414668 117.424133-44.205415 262.273903-44.205415z" fill="#EAF0FE" /><path d="M660.514589 686.224317c-52.698259 0-95.617646-42.345009-95.617646-95.005338 0-52.662135 42.919387-94.467084 95.617646-94.467084 52.701871 0 95.619452 42.345009 95.619452 95.007144 0.001806 52.660328-42.917581 94.465278-95.619452 94.465278z" fill="#BAD4FF" /><path d="M802.893451 621.189579c-3.171721 0-6.215201-1.257129-8.458526-3.500453s-3.498647-5.286804-3.489616-8.453107a11.90118 11.90118 0 0 1 3.489616-8.454914 11.942723 11.942723 0 0 1 8.458526-3.500453 11.937304 11.937304 0 0 1 11.946335 11.955367 11.926467 11.926467 0 0 1-3.491422 8.449494 11.962592 11.962592 0 0 1-8.454913 3.504066z m0-15.780939a3.858085 3.858085 0 0 0-3.829186 3.829185c0 2.086183 1.737583 3.825573 3.829186 3.825573a3.858085 3.858085 0 0 0 3.823766-3.825573 3.856279 3.856279 0 0 0-3.823766-3.829185z m-27.308232-297.744442a11.939111 11.939111 0 0 1-11.948142-11.95356 11.931886 11.931886 0 0 1 11.948142-11.949948 11.944529 11.944529 0 0 1 8.454913 3.498647 11.910211 11.910211 0 0 1 3.493228 8.451301 11.933692 11.933692 0 0 1-11.948141 11.95356z m0-15.780939a3.861697 3.861697 0 0 0-3.827379 3.827379c0 2.089796 1.739389 3.829185 3.827379 3.829185a3.86531 3.86531 0 0 0 3.829185-3.829185 3.861697 3.861697 0 0 0-3.829185-3.827379zM580.549641 269.256748c-0.045155 0.897691 0.411818 1.74842 1.179461 2.210812a2.438396 2.438396 0 1 0 4.734102 0.70262 2.438396 2.438396 0 0 0-1.043995-2.911626v-0.001806a2.431171 2.431171 0 0 0-1.179462-2.212619 2.442009 2.442009 0 0 0-3.690106 2.212619c0-0.003612 0 0 0 0zM259.504969 581.73994a2.438396 2.438396 0 1 0 4.871374 0v-0.005419a2.438396 2.438396 0 1 0-4.871374 0.005419z m532.946727-69.738134c-0.048768 0.901304 0.402787 1.757452 1.175849 2.219844s1.743002 0.464198 2.516064 0c0.776674-0.464198 1.230035-1.31854 1.177655-2.219844v-0.003612a2.429365 2.429365 0 0 0-1.177655-2.219844 2.427559 2.427559 0 0 0-2.516064 0.001806c-0.773062 0.464198-1.228229 1.316734-1.175849 2.22165z m-538.629094 168.131939a2.438396 2.438396 0 1 0 4.871374 0v-0.005419a2.442009 2.442009 0 0 0-3.686494-2.194556 2.429365 2.429365 0 0 0-1.18488 2.199975c0-0.005419 0 0 0 0zM379.083922 323.32954a13.763392 13.763392 0 0 1-13.801323-13.808548 13.763392 13.763392 0 0 1 13.799517-13.810354c7.654758 0 13.801323 6.150177 13.801323 13.810354s-6.144759 13.808548-13.799517 13.808548z m0-19.494527a5.693204 5.693204 0 0 0-5.684172 5.685979 5.693204 5.693204 0 0 0 5.684172 5.684173 5.689591 5.689591 0 0 0 5.682367-5.684173 5.689591 5.689591 0 0 0-5.682367-5.685979z m-171.094138 243.54702a13.772423 13.772423 0 0 1-13.799517-13.810354 13.765199 13.765199 0 0 1 13.799517-13.803129 13.761586 13.761586 0 0 1 13.803129 13.803129 13.754361 13.754361 0 0 1-13.803129 13.810354z m0-19.49272a5.689591 5.689591 0 0 0-5.682367 5.682366 5.69501 5.69501 0 0 0 5.682367 5.687785 5.698622 5.698622 0 0 0 5.684172-5.687785 5.689591 5.689591 0 0 0-5.684172-5.682366zM264.378149 518.032773h-16.239719c-2.205394 0-4.058575-1.854987-4.058575-4.058575 0-2.205394 1.854987-4.060381 4.058575-4.060381h16.239719c2.203588 0 4.058575 1.856794 4.058575 4.060381s-1.856794 4.058575-4.058575 4.058575z" fill="#577EFF" /><path d="M256.25558 526.158954c-2.203588 0-4.056769-1.8586-4.056769-4.062187v-16.241526c0-2.2072 1.854987-4.062188 4.056769-4.062187 2.2072 0 4.060381 1.854987 4.060381 4.062187v16.241526a4.110955 4.110955 0 0 1-4.060381 4.062187zM309.726901 305.924809a3.597989 3.597989 0 1 0 7.19056 0.001806v-0.003612a3.599795 3.599795 0 1 0-7.192366-0.005419v0.007225h0.001806z m391.906274 56.507576a3.599795 3.599795 0 1 0 7.192366 0.003612 3.594377 3.594377 0 0 0-7.19056-0.005418v0.001806h-0.001806zM304.971125 345.607451h-4.058575v-4.060382c0-2.205394-1.854987-4.060381-4.060381-4.060381-2.203588 0-4.058575 1.856794-4.058575 4.060381v4.060382h-4.058576c-2.2072 0-4.060381 1.854987-4.060381 4.060381s1.856794 4.060381 4.060381 4.060381h4.058576v4.060382c0 2.205394 1.854987 4.060381 4.058575 4.060381 2.205394 0 4.060381-1.8586 4.060381-4.060381v-4.060382h4.058575c2.203588 0 4.058575-1.8586 4.058575-4.060381 0-2.203588-1.854987-4.060381-4.058575-4.060381z m466.555519 9.164757h-4.060382v-4.060381c0-2.205394-1.854987-4.060381-4.056769-4.060381-2.203588 0-4.058575 1.8586-4.058575 4.060381v4.060381h-4.060381c-2.205394 0-4.058575 1.8586-4.058575 4.062188 0 2.205394 1.854987 4.060381 4.058575 4.060381h4.060381v4.060381c0 2.205394 1.854987 4.060381 4.058575 4.060382 2.201782 0 4.056769-1.854987 4.056769-4.060382v-4.060381h4.060382c2.2072 0 4.062188-1.854987 4.062187-4.060381-0.003612-2.203588-1.8586-4.062188-4.062187-4.062188zM242.089401 593.227495h-4.058575v-4.062187c0-2.203588-1.854987-4.062188-4.058575-4.062188s-4.062188 1.8586-4.062188 4.062188v4.062187h-4.060381c-2.203588 0-4.056769 1.854987-4.056769 4.056769 0 2.2072 1.856794 4.060381 4.056769 4.060382h4.060381v4.058575c0 2.205394 1.856794 4.063994 4.062188 4.063994 2.201782 0 4.058575-1.8586 4.058575-4.063994v-4.058575h4.058575c2.205394 0 4.060381-1.853181 4.060381-4.060382 0-2.203588-1.856794-4.056769-4.060381-4.056769zM730.749433 321.008548h-4.062188v-4.062188c0-2.205394-1.853181-4.060381-4.056769-4.060381s-4.058575 1.8586-4.058575 4.060381v4.062188h-4.058575c-2.205394 0-4.058575 1.856794-4.058575 4.060381 0 2.205394 1.853181 4.060381 4.058575 4.060381h4.058575v4.062188c0 2.205394 1.854987 4.060381 4.058575 4.060381 2.201782 0 4.056769-1.854987 4.056769-4.060381v-4.062188h4.062188c2.201782 0 4.056769-1.854987 4.056769-4.060381 0-2.205394-1.854987-4.060381-4.056769-4.060381zM176.39178 698.531896H153.696633a3.585346 3.585346 0 0 1 0-7.170691h22.695147a3.585346 3.585346 0 1 1 0 7.170691z m64.716844 0h-51.921585a3.583539 3.583539 0 0 1 0-7.170691h51.921585a3.585346 3.585346 0 1 1 0 7.170691z m667.762947 0h-22.693341a3.581733 3.581733 0 0 1-3.583539-3.587151c0-1.981423 1.602117-3.583539 3.583539-3.58354h22.693341c1.981423 0 3.583539 1.603923 3.58354 3.58354a3.581733 3.581733 0 0 1-3.58354 3.587151z m-35.4886 0h-51.917972a3.579927 3.579927 0 0 1-3.583539-3.587151c0-1.981423 1.60031-3.583539 3.583539-3.58354h51.917972c1.983229 0 3.583539 1.603923 3.58354 3.58354a3.583539 3.583539 0 0 1-3.58354 3.587151z m-67.453265 0H256.945556a3.581733 3.581733 0 0 1-3.581733-3.587151c0-1.981423 1.603923-3.583539 3.581733-3.58354h548.98415c1.981423 0 3.579927 1.603923 3.579927 3.58354a3.578121 3.578121 0 0 1-3.579927 3.587151z m-461.265102 34.063493h-22.695147a3.583539 3.583539 0 1 1 0-7.168885h22.695147a3.585346 3.585346 0 0 1 0 7.168885z m153.750819 0h-133.786675a3.583539 3.583539 0 1 1 0-7.168885h133.786675a3.585346 3.585346 0 0 1 0 7.168885z m241.843755 0h-36.445896a3.579927 3.579927 0 0 1-3.583539-3.581733c0-1.983229 1.602117-3.587152 3.583539-3.587152h36.445896c1.981423 0 3.581733 1.605729 3.581734 3.587152a3.579927 3.579927 0 0 1-3.581734 3.581733z m-59.793089 0H524.435821a3.578121 3.578121 0 0 1-3.579927-3.581733c0-1.983229 1.602117-3.587152 3.579927-3.587152h156.030268c1.981423 0 3.581733 1.605729 3.581733 3.587152a3.581733 3.581733 0 0 1-3.581733 3.581733zM423.578332 793.548071h22.693342v7.168885h-22.693342v-7.168885z m42.659292 0h133.786675v7.168885h-133.786675v-7.168885z m159.807073 0h12.601993v7.168885h-12.601993v-7.168885z" fill="#577EFF" /><path d="M821.367463 363.738282a1.31854 1.31854 0 1 1-0.478648-2.543157c26.842227-10.468848 45.471575-30.425767 54.975902-51.542279-2.174688-0.400981-4.040513-1.262547-5.595668-2.582894-8.106313-6.890727-4.39092-24.138317 0.084892-34.049043 1.620179-3.588958 5.844926-11.88673 10.441755-11.205785 2.322798 0.337763 3.82196 2.842989 4.454137 7.448849 1.605729 11.740427-0.307057 25.008915-5.537869 37.999245 6.020129-0.258289 15.385377-3.55464 29.947119-13.235977 43.450415-28.876031 69.653241-61.257933 70.099377-86.617254 0.151722-8.624698-2.841183-15.580449-8.433238-19.58845a1.313122 1.313122 0 0 1 1.529868-2.134951c6.314543 4.52458 9.697592 12.257005 9.535032 21.772169-0.227584 12.591156-7.613215 46.446933-71.280645 88.761237-13.721849 9.123215-24.503173 13.698368-32.221149 13.698368h-0.29622c-9.666887 22.01059-28.897705 42.867007-56.753221 53.735029a1.329378 1.329378 0 0 1-0.471424 0.084893z m58.906236-99.329427c-1.549736 0-4.645596 3.316219-7.524711 9.697592-5.001422 11.07935-6.973813 25.697084-0.776674 30.96402 1.166818 0.993421 2.770741 1.784545 4.977941 2.086184 5.312091-12.820546 7.280871-25.944536 5.696816-37.531434-0.503935-3.672044-1.477488-5.095345-2.228875-5.203719a0.74055 0.74055 0 0 0-0.144497-0.012643zM45.921324 669.608904c-1.4522 0-2.328217-0.037931-2.461878-0.048768a1.786351 1.786351 0 0 1-1.706877-1.867631c0.045155-0.989808 0.978971-1.853181 1.869437-1.706877 0.446136-0.003612 38.660321 1.455813 53.15162-18.838869-6.760679 0.661076-11.769326-2.727391-14.303452-9.838478-3.975489-11.128118-2.992906-20.496978 2.624437-25.059488 3.670238-2.97665 8.767389-3.227714 12.999362-0.639402 2.566638 1.578636 10.654889 8.06477 6.925045 25.474919a33.95512 33.95512 0 0 1-1.179461 4.179592c21.130961-10.217784 51.018475-50.453128 47.841335-66.351472a1.79177 1.79177 0 1 1 3.51129-0.699007c3.756936 18.786489-30.138578 63.855277-53.483964 71.809867-5.330154 9.703011-15.710497 16.709336-30.54859 20.500591-10.683788 2.727391-20.733593 3.085023-25.238304 3.085023z m46.000797-56.20955a7.177916 7.177916 0 0 0-4.569735 1.62921c-4.385501 3.560059-4.945429 11.436982-1.508194 21.071357 2.319186 6.500584 6.688431 8.780033 13.371443 6.937689 1.034964-2.129533 1.806219-4.387307 2.299317-6.7083 2.568444-12.000522-1.05122-19.061034-5.295835-21.660183-1.379952-0.850729-2.859245-1.269772-4.296996-1.269773z m568.760447-126.086762c-57.466678 0-104.634293 46.591431-104.634294 104.018373 0 57.421523 46.625749 104.012954 104.634294 104.012954 57.466678 0 104.632487-46.591431 104.632487-104.012954 0-57.425135-47.164003-104.018373-104.632487-104.018373z m0 198.279548c-52.586273 0-95.415349-42.254698-95.41535-94.801235 0-52.550149 42.829076-94.264788 95.41535-94.264787 52.58808 0 95.417156 42.254698 95.417155 94.806653 0 52.54473-42.829076 94.259369-95.417155 94.259369z" fill="#577EFF" /><path d="M527.314935 605.414058H337.567968c-2.167463 0-4.338539-0.54006-6.506003-1.623791l123.606823-122.434586 70.478683 56.341403c1.083732 0.543672 1.621985 1.081925 2.712942 1.081926 1.085538 0 2.165657-0.538253 3.251195-1.081926l189.75058-160.356164 0.540059-0.541865c1.085538 2.167463 1.625598 3.791255 1.625598 6.50239V475.396963a4.864149 4.864149 0 0 0 4.880405 4.876792 4.855118 4.855118 0 0 0 4.876792-4.876792v-92.097325c0-13.002974-10.840929-23.294812-23.856546-23.294812H337.567968c-13.010199 0-23.85474 10.293645-23.854741 23.294812v207.487655c0 13.002974 10.842735 23.294812 23.854741 23.294812h189.746967a4.851505 4.851505 0 0 0 4.882211-4.87318c-0.543672-1.627404-2.711135-3.794867-4.882211-3.794867zM337.567968 369.212933h370.282215c2.167463 0 4.336733 0.541866 6.504196 1.623791l-187.039444 157.650447-195.711104-157.650447c1.625598-1.081925 3.796673-1.623791 5.964137-1.623791z m-13.013811 228.074944c-1.081925-1.625598-1.623791-3.791255-1.623792-6.50239V383.299638c0.541866-2.16927 1.081925-4.334927 1.623792-5.960524 0 0 0 0.541866 0.543672 0.541866l121.979419 98.057848-122.523091 121.349049z m339.383218 21.129155l2.165657-77.470559c0-2.707523-2.165657-4.876793-5.420464-4.876792s-4.878599 2.16927-5.420465 4.876792l2.165657 78.008812h6.509615v-0.538253z m-3.254807 10.833704c-1.625598 0-3.254807 0.543672-4.336733 1.625598s-1.623791 2.707523-1.623792 4.329508c0 1.62921 0.541866 3.254807 1.623792 4.336733 1.083732 1.085538 2.711135 1.623791 4.336733 1.623791s3.254807-0.54006 4.336732-1.623791c1.083732-1.083732 1.627404-2.707523 1.627404-4.336733 0-1.623791-0.545478-3.245776-1.627404-4.329508-1.081925-1.081925-2.709329-1.625598-4.336732-1.625598z" fill="#577EFF" /></svg>