<?xml version="1.0" standalone="no"?><!DOCTYPE svg PUBLIC "-//W3C//DTD SVG 1.1//EN" "http://www.w3.org/Graphics/SVG/1.1/DTD/svg11.dtd"><svg class="icon" width="512px" height="326.46px" viewBox="0 0 1606 1024" version="1.1" xmlns="http://www.w3.org/2000/svg"><path d="M255.425 955.089a500.51 68.911 0 1 0 1001.02 0 500.51 68.911 0 1 0-1001.02 0z" fill="#BBDFFF" /><path d="M641.294 423.135h-97.926c-30.048 0-54.404-21.655-54.404-48.36s24.356-48.36 54.404-48.36H561.5c30.048 0 54.404-21.646 54.404-48.35s-24.356-48.361-54.404-48.361H68.239c-30.049 0-54.405 21.655-54.405 48.36s24.356 48.35 54.405 48.35h90.676c30.049 0 54.405 21.656 54.405 48.36s-24.356 48.361-54.405 48.361h-10.882c-30.049 0-54.405 21.645-54.405 48.35s24.356 48.36 54.405 48.36h493.26c30.05 0 54.405-21.654 54.405-48.36s-24.376-48.35-54.404-48.35zM1493.91 640.762h-97.926c-30.048 0-54.404-21.655-54.404-48.36s24.356-48.36 54.404-48.36h18.131c30.049 0 54.404-21.646 54.404-48.351s-24.376-48.37-54.424-48.37H920.834c-30.048 0-54.404 21.655-54.404 48.36s24.356 48.35 54.404 48.35h90.667c30.048 0 54.404 21.655 54.404 48.36s-24.356 48.36-54.404 48.36h-10.883c-30.048 0-54.404 21.646-54.404 48.351s24.356 48.36 54.404 48.36h493.291c30.049 0 54.404-21.655 54.404-48.36s-24.375-48.34-54.404-48.34z" fill="#E3F3FF" /><path d="M531.11 160.803l-197.306 46.754a14.517 14.517 0 0 0-9.839 17.288l167.399 690.507a14.497 14.497 0 0 0 17.76 10.622l325.49-86.922" fill="#BBDFFF" /><path d="M505.41 931.476a19.356 19.356 0 0 1-9.97-2.771 19.376 19.376 0 0 1-8.955-12.168l-167.4-690.477a19.557 19.557 0 0 1 13.243-23.272l0.321-0.09 197.307-46.754 2.319 9.768-197.136 46.714a9.497 9.497 0 0 0-6.295 11.264l167.399 690.508a9.417 9.417 0 0 0 4.347 5.913 9.407 9.407 0 0 0 7.259 1.004l325.47-86.912 2.59 9.698-325.48 86.932a19.788 19.788 0 0 1-5.02 0.643z" fill="#007BFC" /><path d="M1122.297 839.022H650.8v-94.301a14.507 14.507 0 0 0-14.507-14.507H527.486V70.116a14.507 14.507 0 0 1 14.507-14.507h580.284a14.507 14.507 0 0 1 14.507 14.507v754.389a14.507 14.507 0 0 1-14.487 14.517z" fill="#FFFEFF" /><path d="M1122.297 844.042H645.782V744.72a9.497 9.497 0 0 0-9.488-9.487H522.466V70.116a19.547 19.547 0 0 1 19.527-19.527h580.284a19.547 19.547 0 0 1 19.527 19.527v754.389a19.547 19.547 0 0 1-19.507 19.537z m-466.476-10.04h466.476a9.497 9.497 0 0 0 9.487-9.487V70.126a9.497 9.497 0 0 0-9.487-9.487H542.013a9.497 9.497 0 0 0-9.487 9.487v655.078h103.788a19.547 19.547 0 0 1 19.527 19.527z" fill="#007BFC" /><path d="M646.314 844.222l-123.808-109.48 6.647-7.52 123.807 109.48z" fill="#007BFC" /><path d="M35.138 742.924a35.138 35.138 0 1 1 35.139-35.138 35.138 35.138 0 0 1-35.139 35.138z m0-63.25a28.11 28.11 0 1 0 28.11 28.112 28.11 28.11 0 0 0-28.11-28.111zM1407.208 90.356a45.178 45.178 0 1 1 45.178-45.178 45.178 45.178 0 0 1-45.178 45.178z m0-81.32a36.142 36.142 0 1 0 36.142 36.142 36.142 36.142 0 0 0-36.142-36.142zM1312.415 200.79a30.119 30.119 0 1 1-30.118 30.119 30.119 30.119 0 0 1 30.118-30.119zM260.465 802.76h-14.507v-14.508a7.259 7.259 0 0 0-7.259-7.258 7.259 7.259 0 0 0-7.258 7.258v14.507h-14.507a7.259 7.259 0 0 0-7.259 7.249 7.259 7.259 0 0 0 7.259 7.258h14.507v14.507a7.259 7.259 0 0 0 7.258 7.249 7.259 7.259 0 0 0 7.259-7.249v-14.507h14.507a7.259 7.259 0 0 0 7.259-7.258 7.259 7.259 0 0 0-7.259-7.249zM1599.073 157.159h-14.507V142.65a7.259 7.259 0 0 0-7.258-7.258 7.259 7.259 0 0 0-7.259 7.258v14.508h-14.507a7.259 7.259 0 0 0-7.259 7.258 7.259 7.259 0 0 0 7.259 7.249h14.507v14.507a7.259 7.259 0 0 0 7.259 7.258 7.259 7.259 0 0 0 7.258-7.258v-14.507h14.507a7.259 7.259 0 0 0 7.259-7.249 7.259 7.259 0 0 0-7.259-7.258z" fill="#BBDFFF" /><path d="M642.529 160.632h381.501v10.04H642.53zM642.529 331.304h381.501v10.04H642.53zM642.529 512.015h381.501v10.04H642.53zM783.082 692.726h240.948v10.04H783.082z" fill="#007BFC" /></svg>